<?xml version="1.0" standalone="no"?><!DOCTYPE svg PUBLIC "-//W3C//DTD SVG 1.1//EN" "http://www.w3.org/Graphics/SVG/1.1/DTD/svg11.dtd"><svg t="1618927982520" class="icon" viewBox="0 0 1024 1024" version="1.1" xmlns="http://www.w3.org/2000/svg" p-id="2781" xmlns:xlink="http://www.w3.org/1999/xlink" width="200" height="200"><defs><style type="text/css"></style></defs><path d="M611.8 611.8C630 593.6 640 569.5 640 544V384H480c-25.5 0-49.6 10-67.8 28.2S384 454.5 384 480v160h160c25.5 0 49.6-10 67.8-28.2z" fill="#3B82FE" opacity=".4" p-id="2782"></path><path d="M544 704H384v96c0 25.5 10 49.6 28.2 67.8C430.4 886 454.5 896 480 896h320c25.5 0 49.6-10 67.8-28.2C886 849.6 896 825.5 896 800V480c0-25.5-10-49.6-28.2-67.8C849.6 394 825.5 384 800 384h-96v160c0 88.2-71.8 160-160 160zM480 320h160v-96c0-25.5-10-49.6-28.2-67.8C593.6 138 569.5 128 544 128H224c-25.5 0-49.6 10-67.8 28.2S128 198.5 128 224v320c0 25.5 10 49.6 28.2 67.8C174.4 630 198.5 640 224 640h96V480c0-88.2 71.8-160 160-160z" fill="#3B82FE" opacity=".4" p-id="2783"></path><path d="M640 544c0 25.5-10 49.6-28.2 67.8C593.6 630 569.5 640 544 640H384v64h160c88.2 0 160-71.8 160-160V384h-64v160z" fill="#3B82FE" p-id="2784"></path><path d="M224 640c-25.5 0-49.6-10-67.8-28.2C138 593.6 128 569.5 128 544V224c0-25.5 10-49.6 28.2-67.8S198.5 128 224 128h320c25.5 0 49.6 10 67.8 28.2C630 174.4 640 198.5 640 224v96h64v-96c0-88.2-71.8-160-160-160H224c-88.2 0-160 71.8-160 160v320c0 88.2 71.8 160 160 160h96v-64h-96z" fill="#3B82FE" p-id="2785"></path><path d="M412.2 412.2C430.4 394 454.5 384 480 384h160v-64H480c-88.2 0-160 71.8-160 160v160h64V480c0-25.5 10-49.6 28.2-67.8z" fill="#3B82FE" p-id="2786"></path><path d="M800 320h-96v64h96c25.5 0 49.6 10 67.8 28.2C886 430.4 896 454.5 896 480v320c0 25.5-10 49.6-28.2 67.8C849.6 886 825.5 896 800 896H480c-25.5 0-49.6-10-67.8-28.2C394 849.6 384 825.5 384 800v-96h-64v96c0 88.2 71.8 160 160 160h320c88.2 0 160-71.8 160-160V480c0-88.2-71.8-160-160-160z" fill="#3B82FE" p-id="2787"></path><path d="M640 320h64v64h-64zM320 640h64v64h-64z" fill="#3B82FE" p-id="2788"></path></svg>