<?xml version="1.0" standalone="no"?><!DOCTYPE svg PUBLIC "-//W3C//DTD SVG 1.1//EN" "http://www.w3.org/Graphics/SVG/1.1/DTD/svg11.dtd"><svg t="1618928043509" class="icon" viewBox="0 0 1024 1024" version="1.1" xmlns="http://www.w3.org/2000/svg" p-id="3916" xmlns:xlink="http://www.w3.org/1999/xlink" width="200" height="200"><defs><style type="text/css"></style></defs><path d="M670.8736 652.7744c-4.864 7.1168-11.008 13.2608-18.0992 18.0992l-25.6 10.5984c-4.1472 0.768-8.4224 1.2032-12.7744 1.2032H341.3248V612.864L51.2 322.7392v-36.224l290.1248 290.1504v-36.1984L51.2 250.3168V214.1184l290.1248 290.1248v-36.1984L51.2 177.92V141.7216l290.1248 290.1248V409.6c0-4.352 0.4096-8.6272 1.2032-12.7744L51.2 105.4976V69.2992l301.9264 301.9264c4.864-7.1168 11.008-13.2608 18.0992-18.0992L69.2992 51.2h36.1984l291.328 291.328c4.1472-0.768 8.4224-1.2032 12.7744-1.2032h22.2464L141.7216 51.2H177.92l290.1248 290.1248h36.1984L214.1184 51.2h36.1984l290.1504 290.1248h36.1984L286.5152 51.2h36.224L612.864 341.3248h69.8112V614.4c0 4.352-0.4096 8.6272-1.2032 12.7744l-10.5984 25.6z m-278.3488 29.9008v273.0496c0 9.4464 7.6544 17.0752 17.0752 17.0752h546.1248a17.0752 17.0752 0 0 0 17.0752-17.0752V409.6a17.0752 17.0752 0 0 0-17.0752-17.0752H682.6752v-51.2h-51.2V68.2752A17.0752 17.0752 0 0 0 614.4 51.2H68.2752A17.0752 17.0752 0 0 0 51.2 68.2752V614.4c0 9.4208 7.6288 17.0752 17.0752 17.0752h273.0496v51.2h51.2z m290.1504-341.3504h273.0496A68.2752 68.2752 0 0 1 1024 409.6v546.1248A68.2752 68.2752 0 0 1 955.7248 1024H409.6a68.2752 68.2752 0 0 1-68.2752-68.2752V682.6752H68.2752A68.2752 68.2752 0 0 1 0 614.4V68.2752A68.2752 68.2752 0 0 1 68.2752 0H614.4a68.2752 68.2752 0 0 1 68.2752 68.2752v273.0496z m-273.0752 51.2a17.0752 17.0752 0 0 0-17.0752 17.0752v221.8752H614.4a17.0752 17.0752 0 0 0 17.0752-17.0752v-221.8752H409.6z m-85.8624 238.9504h-36.1984L51.2 395.136v-36.1984l272.5376 272.5376z m-72.4224 0H215.1168L51.2 467.5328V431.36l200.1152 200.1408z m-72.3968 0H142.72L51.2 539.9552v-36.1984l127.7184 127.7184z m-72.3968 0L51.2 576.1792v36.1728l19.0976 19.1232h36.224zM358.912 51.2h36.1984l236.3392 236.3392v36.1984L358.912 51.2z m72.3968 0h36.1984l163.9424 163.9168v36.1984L431.3344 51.2z m72.4224 0h36.1984l91.52 91.52v36.1984L503.7312 51.2z m72.3968 0h36.1984l19.1232 19.0976v36.224L576.1792 51.2z" p-id="3917"></path></svg>