<?xml version="1.0" standalone="no"?><!DOCTYPE svg PUBLIC "-//W3C//DTD SVG 1.1//EN" "http://www.w3.org/Graphics/SVG/1.1/DTD/svg11.dtd"><svg t="1618928214911" class="icon" viewBox="0 0 1024 1024" version="1.1" xmlns="http://www.w3.org/2000/svg" p-id="4127" xmlns:xlink="http://www.w3.org/1999/xlink" width="200" height="200"><defs><style type="text/css"></style></defs><path d="M647.9 679.5H162.5c-33.4 0-60.5-27.2-60.5-60.6V133.6c0-33.4 27.2-60.6 60.5-60.6h485.4c33.4 0 60.6 27.2 60.6 60.6v485.3c0 33.5-27.2 60.6-60.6 60.6z m-478.6-67.4h471.8V140.4H169.3v471.7z" p-id="4128"></path><path d="M887.5 949.1H402.1c-33.4 0-60.6-27.2-60.6-60.6V403.2c0-33.4 27.2-60.6 60.6-60.6h485.4c33.4 0 60.5 27.2 60.5 60.6v485.3c0 33.4-27.1 60.6-60.5 60.6z m-478.6-67.4h471.8V410H408.9v471.7z" p-id="4129"></path><path d="M375.2 391.2h299.5v239.6H375.2z" p-id="4130"></path></svg>