<?xml version="1.0" standalone="no"?><!DOCTYPE svg PUBLIC "-//W3C//DTD SVG 1.1//EN" "http://www.w3.org/Graphics/SVG/1.1/DTD/svg11.dtd"><svg t="1619004657977" class="icon" viewBox="0 0 1024 1024" version="1.1" xmlns="http://www.w3.org/2000/svg" p-id="3781" xmlns:xlink="http://www.w3.org/1999/xlink" width="200" height="200"><defs><style type="text/css"></style></defs><path d="M870.058667 118.101333H153.941333c-39.424 0-71.68 32.256-71.68 71.68v644.437334c0 39.424 32.256 71.68 71.68 71.68h716.117334c39.424 0 71.68-32.256 71.68-71.68V189.781333c-0.170667-39.424-32.256-71.68-71.68-71.68zM619.349333 440.32H404.650667V261.290667H619.52V440.32z m0 35.84v179.029333H404.650667V476.16h214.698666zM118.101333 261.290667h250.709334V440.32H118.101333V261.290667z m0 214.869333h250.709334v179.029333H118.101333V476.16z m35.84 393.898667c-21.504 0-35.84-14.336-35.84-35.84v-143.189334h250.709334v179.029334H153.941333z m250.709334 0V691.029333H619.52v179.029334H404.650667z m501.248-35.84c0 21.504-14.336 35.84-35.84 35.84H655.189333V691.029333h250.709334v143.189334z m0-179.029334H655.189333V476.16h250.709334v179.029333z m0-214.869333H655.189333V261.290667h250.709334V440.32z" p-id="3782"></path></svg>