<?xml version="1.0" standalone="no"?><!DOCTYPE svg PUBLIC "-//W3C//DTD SVG 1.1//EN" "http://www.w3.org/Graphics/SVG/1.1/DTD/svg11.dtd"><svg t="1618928017069" class="icon" viewBox="0 0 1024 1024" version="1.1" xmlns="http://www.w3.org/2000/svg" p-id="3665" xmlns:xlink="http://www.w3.org/1999/xlink" width="200" height="200"><defs><style type="text/css"></style></defs><path d="M928 768H704c-19.2 0-32 12.8-32 32s12.8 32 32 32h224c19.2 0 32-12.8 32-32 0-12.8-12.8-32-32-32z m0-179.2H704c-19.2 0-32 12.8-32 32s12.8 32 32 32h224c19.2 0 32-12.8 32-32 0-12.8-12.8-32-32-32z m0-172.8H704c-19.2 0-32 12.8-32 32s12.8 32 32 32h224c19.2 0 32-12.8 32-32s-12.8-32-32-32zM563.2 928c-19.2 0-32-12.8-32-32V396.8c0-6.4 0-19.2 6.4-25.6L755.2 128H172.8l217.6 243.2c6.4 6.4 6.4 12.8 6.4 25.6v300.8l51.2 44.8c12.8 12.8 19.2 32 6.4 44.8-12.8 12.8-32 19.2-44.8 6.4l-64-51.2c-6.4-6.4-12.8-12.8-12.8-25.6V409.6l-256-294.4C64 102.4 64 89.6 64 76.8 70.4 64 83.2 57.6 96 57.6h736c12.8 0 25.6 6.4 32 19.2 6.4 12.8 0 25.6-6.4 38.4l-256 294.4V896c0 19.2-19.2 32-38.4 32z" p-id="3666"></path></svg>