<?xml version="1.0" standalone="no"?><!DOCTYPE svg PUBLIC "-//W3C//DTD SVG 1.1//EN" "http://www.w3.org/Graphics/SVG/1.1/DTD/svg11.dtd"><svg t="1618927955334" class="icon" viewBox="0 0 1026 1024" version="1.1" xmlns="http://www.w3.org/2000/svg" p-id="1997" xmlns:xlink="http://www.w3.org/1999/xlink" width="200.390625" height="200"><defs><style type="text/css"></style></defs><path d="M1026.56 724.48l-231.936-118.784v101.888h-165.888L527.36 583.68l-74.752 50.688 103.936 126.976c10.752 13.312 27.136 21.504 45.056 21.504h193.024v96.768l231.936-155.136zM253.952 282.624H55.296c-23.552 0 1.024 13.824-7.168 35.328-15.872 41.472-26.624 39.424 12.8 39.424h165.888L327.68 481.28l74.752-50.688-103.936-126.976c-10.752-13.312-27.136-20.992-44.544-20.992" fill="#040000" p-id="1998"></path><path d="M1026.56 299.52l-231.936-139.264v122.368H601.6c-17.408 0-33.792 7.68-45.056 21.504l-330.24 403.968H60.416c-42.496 0.512 19.968 14.336 18.944 16.896-13.824 28.672-50.688 57.856-18.944 57.856H253.44c17.408 0 33.792-7.68 45.056-21.504l330.24-403.968h165.888v96.768L1026.56 299.52zM0 283.136h162.816v74.24H0z" fill="#040000" p-id="1999"></path><path d="M4.096 708.096h162.816v74.24H4.096z" fill="#040000" p-id="2000"></path></svg>